<svg width="24" height="24" viewBox="0 0 24 24" fill="none" xmlns="http://www.w3.org/2000/svg">
<g id="TablerBowl 1">
<path id="Vector" d="M4 8.00002H20C20.2652 8.00002 20.5196 8.10537 20.7071 8.29291C20.8946 8.48045 21 8.7348 21 9.00002V9.50002C21 11 18.483 15.073 17 16V17C17 17.2652 16.8946 17.5196 16.7071 17.7071C16.5196 17.8947 16.2652 18 16 18H8C7.73478 18 7.48043 17.8947 7.29289 17.7071C7.10536 17.5196 7 17.2652 7 17V16C5.313 14.946 3 11 3 9.50002V9.00002C3 8.7348 3.10536 8.48045 3.29289 8.29291C3.48043 8.10537 3.73478 8.00002 4 8.00002Z" stroke="#333333" stroke-width="1.5" stroke-linecap="round" stroke-linejoin="round"/>
</g>
</svg>
