<svg width="24" height="24" viewBox="0 0 24 24" fill="none" xmlns="http://www.w3.org/2000/svg">
<g id="TablerCalendarEvent 1">
<g id="Group">
<path id="Vector" d="M16 3.00002V7.00002M8 3.00002V7.00002M4 11H20M4 7.00002C4 6.46958 4.21071 5.96087 4.58579 5.5858C4.96086 5.21073 5.46957 5.00002 6 5.00002H18C18.5304 5.00002 19.0391 5.21073 19.4142 5.5858C19.7893 5.96087 20 6.46958 20 7.00002V19C20 19.5304 19.7893 20.0392 19.4142 20.4142C19.0391 20.7893 18.5304 21 18 21H6C5.46957 21 4.96086 20.7893 4.58579 20.4142C4.21071 20.0392 4 19.5304 4 19V7.00002Z" stroke="#333333" stroke-width="2.66667" stroke-linecap="round" stroke-linejoin="round"/>
<path id="Vector_2" d="M8 15H10V17H8V15Z" stroke="#333333" stroke-width="2.66667" stroke-linecap="round" stroke-linejoin="round"/>
</g>
</g>
</svg>
