<svg width="24" height="24" viewBox="0 0 24 24" fill="none" xmlns="http://www.w3.org/2000/svg">
<g id="TablerUsersGroup 1">
<path id="Vector" d="M8 21V20C8 19.4696 8.21071 18.9609 8.58579 18.5858C8.96086 18.2107 9.46957 18 10 18H14C14.5304 18 15.0391 18.2107 15.4142 18.5858C15.7893 18.9609 16 19.4696 16 20V21M17 10H19C19.5304 10 20.0391 10.2107 20.4142 10.5858C20.7893 10.9609 21 11.4696 21 12V13M3 13V12C3 11.4696 3.21071 10.9609 3.58579 10.5858C3.96086 10.2107 4.46957 10 5 10H7M10 13C10 13.5304 10.2107 14.0392 10.5858 14.4142C10.9609 14.7893 11.4696 15 12 15C12.5304 15 13.0391 14.7893 13.4142 14.4142C13.7893 14.0392 14 13.5304 14 13C14 12.4696 13.7893 11.9609 13.4142 11.5858C13.0391 11.2107 12.5304 11 12 11C11.4696 11 10.9609 11.2107 10.5858 11.5858C10.2107 11.9609 10 12.4696 10 13ZM15 5.00002C15 5.53045 15.2107 6.03916 15.5858 6.41423C15.9609 6.7893 16.4696 7.00002 17 7.00002C17.5304 7.00002 18.0391 6.7893 18.4142 6.41423C18.7893 6.03916 19 5.53045 19 5.00002C19 4.46958 18.7893 3.96087 18.4142 3.5858C18.0391 3.21073 17.5304 3.00002 17 3.00002C16.4696 3.00002 15.9609 3.21073 15.5858 3.5858C15.2107 3.96087 15 4.46958 15 5.00002ZM5 5.00002C5 5.53045 5.21071 6.03916 5.58579 6.41423C5.96086 6.7893 6.46957 7.00002 7 7.00002C7.53043 7.00002 8.03914 6.7893 8.41421 6.41423C8.78929 6.03916 9 5.53045 9 5.00002C9 4.46958 8.78929 3.96087 8.41421 3.5858C8.03914 3.21073 7.53043 3.00002 7 3.00002C6.46957 3.00002 5.96086 3.21073 5.58579 3.5858C5.21071 3.96087 5 4.46958 5 5.00002Z" stroke="#333333" stroke-width="1.5" stroke-linecap="round" stroke-linejoin="round"/>
</g>
</svg>
