<svg width="101" height="52" viewBox="0 0 101 52" fill="none" xmlns="http://www.w3.org/2000/svg">
<path d="M6.9265 51.384C5.9345 51.384 5.1505 51.112 4.5745 50.568C4.0305 49.992 3.7585 49.176 3.7585 48.12V20.424C3.7585 19.368 4.0305 18.568 4.5745 18.024C5.1505 17.448 5.9665 17.16 7.0225 17.16H23.7745C24.6065 17.16 25.2305 17.368 25.6465 17.784C26.0625 18.2 26.2705 18.792 26.2705 19.56C26.2705 20.36 26.0625 20.984 25.6465 21.432C25.2305 21.848 24.6065 22.056 23.7745 22.056H9.9025V31.608H22.7665C23.5665 31.608 24.1745 31.816 24.5905 32.232C25.0385 32.648 25.2625 33.24 25.2625 34.008C25.2625 34.808 25.0385 35.432 24.5905 35.88C24.1745 36.296 23.5665 36.504 22.7665 36.504H9.9025V48.12C9.9025 50.296 8.9105 51.384 6.9265 51.384ZM33.7836 51.384C32.7916 51.384 32.0236 51.112 31.4796 50.568C30.9676 49.992 30.7116 49.208 30.7116 48.216V19.944C30.7116 18.92 30.9676 18.136 31.4796 17.592C32.0236 17.048 32.7916 16.776 33.7836 16.776C34.7756 16.776 35.5276 17.048 36.0396 17.592C36.5836 18.136 36.8556 18.92 36.8556 19.944V48.216C36.8556 49.208 36.5996 49.992 36.0876 50.568C35.5756 51.112 34.8076 51.384 33.7836 51.384ZM55.4905 51.384C54.4985 51.384 53.7305 51.112 53.1865 50.568C52.6745 49.992 52.4185 49.208 52.4185 48.216V22.296H43.0585C42.2265 22.296 41.5705 22.072 41.0905 21.624C40.6425 21.144 40.4185 20.504 40.4185 19.704C40.4185 18.872 40.6425 18.248 41.0905 17.832C41.5705 17.384 42.2265 17.16 43.0585 17.16H67.9225C68.7545 17.16 69.3945 17.384 69.8425 17.832C70.3225 18.248 70.5625 18.872 70.5625 19.704C70.5625 20.504 70.3225 21.144 69.8425 21.624C69.3945 22.072 68.7545 22.296 67.9225 22.296H58.5625V48.216C58.5625 49.208 58.3065 49.992 57.7945 50.568C57.2825 51.112 56.5145 51.384 55.4905 51.384ZM87.7525 51.48C84.2325 51.48 81.2085 50.776 78.6805 49.368C76.1845 47.928 74.2645 45.912 72.9205 43.32C71.5765 40.696 70.9045 37.608 70.9045 34.056C70.9045 31.4 71.2885 29.016 72.0565 26.904C72.8245 24.76 73.9285 22.936 75.3685 21.432C76.8085 19.896 78.5685 18.728 80.6485 17.928C82.7605 17.096 85.1285 16.68 87.7525 16.68C89.5125 16.68 91.2405 16.904 92.9365 17.352C94.6325 17.8 96.1205 18.44 97.4005 19.272C98.0725 19.688 98.5205 20.2 98.7445 20.808C98.9685 21.384 99.0165 21.96 98.8885 22.536C98.7605 23.08 98.4885 23.544 98.0725 23.928C97.6885 24.312 97.1925 24.536 96.5845 24.6C96.0085 24.632 95.3685 24.424 94.6645 23.976C93.6725 23.336 92.6005 22.872 91.4485 22.584C90.2965 22.296 89.1285 22.152 87.9445 22.152C85.6725 22.152 83.7525 22.616 82.1845 23.544C80.6165 24.472 79.4325 25.816 78.6325 27.576C77.8325 29.336 77.4325 31.496 77.4325 34.056C77.4325 36.584 77.8325 38.744 78.6325 40.536C79.4325 42.328 80.6165 43.688 82.1845 44.616C83.7525 45.544 85.6725 46.008 87.9445 46.008C89.1605 46.008 90.3605 45.864 91.5445 45.576C92.7285 45.256 93.8485 44.776 94.9045 44.136C95.6085 43.72 96.2325 43.544 96.7765 43.608C97.3525 43.64 97.8325 43.832 98.2165 44.184C98.6005 44.536 98.8565 44.984 98.9845 45.528C99.1125 46.04 99.0805 46.584 98.8885 47.16C98.6965 47.704 98.3125 48.184 97.7365 48.6C96.4565 49.528 94.9205 50.248 93.1285 50.76C91.3685 51.24 89.5765 51.48 87.7525 51.48Z" fill="#9471F6"/>
<path d="M2.52026 26.7838H10.4397" stroke="#F2F2F2" stroke-width="4"/>
<path d="M50.3704 26.7421H59.6236" stroke="#F2F2F2" stroke-width="4"/>
<path d="M68.2961 33.7049H78.3021" stroke="#F2F2F2" stroke-width="4"/>
<path d="M30.9534 5.10334L29.06 4.874C28.6187 4.82067 28.3987 4.794 28.2154 4.84C27.9755 4.89804 27.7677 5.04726 27.636 5.256C27.5414 5.40934 27.5127 5.616 27.456 6.02734C27.398 6.43934 27.3694 6.64534 27.4194 6.81667C27.4854 7.04467 27.646 7.23934 27.8647 7.35667C28.0294 7.44534 28.4867 7.50067 28.928 7.554L28.3594 11.642C27.918 11.5887 27.4607 11.5327 27.2774 11.5793C27.0377 11.6375 26.8302 11.7867 26.6987 11.9953C26.604 12.1487 26.5754 12.3553 26.518 12.7667C26.4607 13.1787 26.4314 13.3847 26.4814 13.5553C26.5474 13.784 26.708 13.978 26.9274 14.096C27.092 14.1847 27.312 14.2113 27.754 14.2647L29.6474 14.494C30.0874 14.5473 30.3087 14.574 30.492 14.5287C30.736 14.4667 30.9447 14.3173 31.0707 14.112C31.1654 13.9587 31.194 13.752 31.2507 13.3407C31.3087 12.9287 31.3374 12.7233 31.288 12.552C31.2214 12.324 31.0614 12.1293 30.842 12.012C30.6774 11.9233 30.22 11.8673 29.7794 11.814L30.348 7.72667C30.7887 7.78 31.246 7.83534 31.4294 7.78934C31.674 7.728 31.8827 7.578 32.0087 7.37334C32.1034 7.21934 32.132 7.01334 32.1887 6.60134C32.2467 6.19 32.2754 5.984 32.2254 5.81267C32.1594 5.58467 31.9987 5.39 31.78 5.27267C31.6154 5.184 31.3947 5.15667 30.9534 5.10334Z" fill="#9471F6"/>
<path d="M38.2833 10.826L36.44 11.2867C36.0107 11.394 35.7953 11.448 35.6073 11.4247C35.356 11.394 35.1287 11.2713 34.974 11.0833C34.8587 10.9433 34.8013 10.7427 34.686 10.3413C34.5713 9.94001 34.5133 9.73934 34.5387 9.56401C34.572 9.32934 34.7027 9.11734 34.904 8.97334C35.0547 8.86534 35.5 8.75334 35.9293 8.64667L34.7867 4.66467C34.3567 4.77201 33.9113 4.88334 33.7233 4.86067C33.4764 4.83196 33.2498 4.70983 33.09 4.51934C32.9747 4.37867 32.9173 4.17801 32.802 3.77667C32.6873 3.37601 32.6293 3.17534 32.6547 2.99934C32.688 2.76534 32.8187 2.55267 33.02 2.40867C33.1707 2.30067 33.3853 2.24734 33.8147 2.13934L35.6593 1.67801C36.0887 1.57134 36.3033 1.51734 36.492 1.54001C36.7427 1.57134 36.9707 1.69334 37.1247 1.88134C37.24 2.02134 37.298 2.22267 37.4127 2.62334C37.528 3.02467 37.586 3.22534 37.5607 3.40134C37.543 3.51943 37.5016 3.63269 37.4387 3.73424C37.3759 3.83578 37.2931 3.92349 37.1953 3.99201C37.0447 4.10001 36.5993 4.21134 36.17 4.31867L37.3127 8.30001C37.742 8.19334 38.1873 8.08134 38.376 8.10467C38.6267 8.13534 38.8547 8.25801 39.0087 8.44534C39.124 8.58601 39.182 8.78667 39.2967 9.18801C39.412 9.58867 39.47 9.78934 39.4447 9.96534C39.427 10.0834 39.3855 10.1967 39.3227 10.2982C39.2599 10.3997 39.1771 10.4875 39.0793 10.556C38.9287 10.664 38.714 10.718 38.2847 10.8253L38.2833 10.826Z" fill="#B8A2F6"/>
</svg>
