<svg width="24" height="24" viewBox="0 0 24 24" fill="none" xmlns="http://www.w3.org/2000/svg">
<g id="TablerNote 1">
<path id="Vector" d="M13 20L20 13M13 20V14C13 13.7348 13.1054 13.4804 13.2929 13.2929C13.4804 13.1054 13.7348 13 14 13H20M13 20H6C5.46957 20 4.96086 19.7893 4.58579 19.4142C4.21071 19.0392 4 18.5304 4 18V6.00002C4 5.46958 4.21071 4.96087 4.58579 4.5858C4.96086 4.21073 5.46957 4.00002 6 4.00002H18C18.5304 4.00002 19.0391 4.21073 19.4142 4.5858C19.7893 4.96087 20 5.46958 20 6.00002V13" stroke="#333333" stroke-width="1.5" stroke-linecap="round" stroke-linejoin="round"/>
</g>
</svg>
