<svg width="24" height="24" viewBox="0 0 24 24" fill="none" xmlns="http://www.w3.org/2000/svg">
<g id="TablerRun 1">
<g id="Group">
<path id="Vector" d="M4 17L9 18L9.75 16.5M15 21V17L11 14L12 8.00002M12 4.00002C12 4.26523 12.1054 4.51959 12.2929 4.70712C12.4804 4.89466 12.7348 5.00002 13 5.00002C13.2652 5.00002 13.5196 4.89466 13.7071 4.70712C13.8946 4.51959 14 4.26523 14 4.00002C14 3.7348 13.8946 3.48044 13.7071 3.29291C13.5196 3.10537 13.2652 3.00002 13 3.00002C12.7348 3.00002 12.4804 3.10537 12.2929 3.29291C12.1054 3.48044 12 3.7348 12 4.00002Z" stroke="#333333" stroke-width="1.5" stroke-linecap="round" stroke-linejoin="round"/>
<path id="Vector_2" d="M7 12V9.00002L12 8.00002L15 11L18 12" stroke="#333333" stroke-width="1.5" stroke-linecap="round" stroke-linejoin="round"/>
</g>
</g>
</svg>
