<svg width="24" height="24" viewBox="0 0 24 24" fill="none" xmlns="http://www.w3.org/2000/svg">
<g id="TablerGraph 1">
<g id="Group">
<path id="Vector" d="M4 18V6.00002C4 5.46958 4.21071 4.96087 4.58579 4.5858C4.96086 4.21073 5.46957 4.00002 6 4.00002H18C18.5304 4.00002 19.0391 4.21073 19.4142 4.5858C19.7893 4.96087 20 5.46958 20 6.00002V18C20 18.5304 19.7893 19.0392 19.4142 19.4142C19.0391 19.7893 18.5304 20 18 20H6C5.46957 20 4.96086 19.7893 4.58579 19.4142C4.21071 19.0392 4 18.5304 4 18Z" stroke="#333333" stroke-width="1.5" stroke-linecap="round" stroke-linejoin="round"/>
<path id="Vector_2" d="M7 14L10 11L12 13L15 10L17 12" stroke="#333333" stroke-width="1.5" stroke-linecap="round" stroke-linejoin="round"/>
</g>
</g>
</svg>
