<svg width="24" height="24" viewBox="0 0 24 24" fill="none" xmlns="http://www.w3.org/2000/svg">
<g id="TablerWeight 1">
<g id="Group">
<path id="Vector" d="M9 6.00002C9 6.79566 9.31607 7.55873 9.87868 8.12134C10.4413 8.68395 11.2044 9.00002 12 9.00002C12.7956 9.00002 13.5587 8.68395 14.1213 8.12134C14.6839 7.55873 15 6.79566 15 6.00002C15 5.20437 14.6839 4.4413 14.1213 3.8787C13.5587 3.31609 12.7956 3.00002 12 3.00002C11.2044 3.00002 10.4413 3.31609 9.87868 3.8787C9.31607 4.4413 9 5.20437 9 6.00002Z" stroke="#333333" stroke-width="1.5" stroke-linecap="round" stroke-linejoin="round"/>
<path id="Vector_2" d="M6.83503 9.00002H17.165C17.3992 8.99998 17.626 9.08214 17.8058 9.23218C17.9856 9.38221 18.1071 9.5906 18.149 9.82102L19.786 18.821C19.8123 18.9651 19.8065 19.1133 19.7691 19.2549C19.7318 19.3966 19.6638 19.5283 19.5699 19.6408C19.4761 19.7532 19.3586 19.8437 19.2259 19.9058C19.0932 19.9679 18.9485 20 18.802 20H5.19803C5.05153 20 4.90682 19.9679 4.77413 19.9058C4.64144 19.8437 4.524 19.7532 4.43014 19.6408C4.33627 19.5283 4.26826 19.3966 4.23091 19.2549C4.19357 19.1133 4.1878 18.9651 4.21403 18.821L5.85103 9.82102C5.89295 9.5906 6.01441 9.38221 6.19423 9.23218C6.37405 9.08214 6.60083 8.99998 6.83503 9.00002Z" stroke="#333333" stroke-width="1.5" stroke-linecap="round" stroke-linejoin="round"/>
</g>
</g>
</svg>
